<svg xmlns="http://www.w3.org/2000/svg" viewBox="-20 30 630 700" xml:space="preserve">
  <!-- background -->
  <rect x="-20" y="30" width="630" height="700" fill="#333333" rx="40"/>
  <!-- leaf/plant mark — white -->
  <path fill="#ffffff" d="M140 713.7c-3.4-16.4-10.3-49.1-11.2-49.1C-16.9 577.5.4 426.6 48.6 340.4 59 449 251.2 524 139.1 656.8c-.9 1.7 5.2 22.4 10.3 41.4 22.4-37.9 56-83.6 54.3-87.9C65.9 273.9 496.9 248.1 586.6 39.4c40.5 201.8-20.7 513.9-367.2 593.2-1.7.9-62.9 108.6-65.5 109.5 0-1.7-25.9-.9-22.4-9.5 1.6-5.2 5.1-12 8.5-18.9zm-4.3-81.1c44-50.9-7.8-137.9-38.8-166.4 52.6 90.5 49.1 143.1 38.8 166.4z"/>
</svg>
